<mxfile host="app.diagrams.net" modified="2022-01-15T02:20:01.708Z" agent="5.0 (Windows NT 10.0; WOW64) AppleWebKit/537.36 (KHTML, like Gecko) Chrome/75.0.3770.100 Safari/537.36" etag="eoBvgIAuMKYCeicGkdFT" version="16.2.4" type="github" pages="3">
  <diagram id="C5RBs43oDa-KdzZeNtuy" name="原有授权模式">
    <mxGraphModel dx="1038" dy="611" grid="1" gridSize="10" guides="1" tooltips="1" connect="1" arrows="1" fold="1" page="1" pageScale="1" pageWidth="827" pageHeight="1169" math="0" shadow="0">
      <root>
        <mxCell id="WIyWlLk6GJQsqaUBKTNV-0" />
        <mxCell id="WIyWlLk6GJQsqaUBKTNV-1" parent="WIyWlLk6GJQsqaUBKTNV-0" />
        <mxCell id="MX3AXQXJf54BNF3SE1I3-0" value="现有流程" style="swimlane;childLayout=stackLayout;resizeParent=1;resizeParentMax=0;startSize=20;" vertex="1" parent="WIyWlLk6GJQsqaUBKTNV-1">
          <mxGeometry x="40" y="30" width="770" height="680" as="geometry" />
        </mxCell>
        <mxCell id="MX3AXQXJf54BNF3SE1I3-1" value="人资专员（人资系统）" style="swimlane;startSize=20;" vertex="1" parent="MX3AXQXJf54BNF3SE1I3-0">
          <mxGeometry y="20" width="190" height="660" as="geometry" />
        </mxCell>
        <mxCell id="MX3AXQXJf54BNF3SE1I3-5" value="人员入职/调岗" style="rounded=0;whiteSpace=wrap;html=1;" vertex="1" parent="MX3AXQXJf54BNF3SE1I3-1">
          <mxGeometry x="25" y="70" width="120" height="60" as="geometry" />
        </mxCell>
        <mxCell id="MX3AXQXJf54BNF3SE1I3-2" value="4A管理员&#xa;（4A系统地市、省份、总部）" style="swimlane;startSize=20;" vertex="1" parent="MX3AXQXJf54BNF3SE1I3-0">
          <mxGeometry x="190" y="20" width="300" height="660" as="geometry" />
        </mxCell>
        <mxCell id="MX3AXQXJf54BNF3SE1I3-12" value="推送" style="text;html=1;align=center;verticalAlign=middle;resizable=0;points=[];autosize=1;strokeColor=none;fillColor=none;" vertex="1" parent="MX3AXQXJf54BNF3SE1I3-2">
          <mxGeometry x="270" y="210" width="40" height="20" as="geometry" />
        </mxCell>
        <mxCell id="MX3AXQXJf54BNF3SE1I3-6" value="建立/迁移账号" style="whiteSpace=wrap;html=1;rounded=0;" vertex="1" parent="MX3AXQXJf54BNF3SE1I3-2">
          <mxGeometry x="84" y="70" width="120" height="60" as="geometry" />
        </mxCell>
        <mxCell id="MX3AXQXJf54BNF3SE1I3-8" value="授权角色" style="whiteSpace=wrap;html=1;rounded=0;" vertex="1" parent="MX3AXQXJf54BNF3SE1I3-2">
          <mxGeometry x="84" y="340" width="120" height="60" as="geometry" />
        </mxCell>
        <mxCell id="MX3AXQXJf54BNF3SE1I3-9" value="" style="edgeStyle=orthogonalEdgeStyle;rounded=0;orthogonalLoop=1;jettySize=auto;html=1;" edge="1" parent="MX3AXQXJf54BNF3SE1I3-2" source="MX3AXQXJf54BNF3SE1I3-6" target="MX3AXQXJf54BNF3SE1I3-8">
          <mxGeometry relative="1" as="geometry" />
        </mxCell>
        <mxCell id="FvDaORWqxjSWWVm6NtL--0" value="分配系统" style="rounded=0;whiteSpace=wrap;html=1;" vertex="1" parent="MX3AXQXJf54BNF3SE1I3-2">
          <mxGeometry x="84" y="200" width="120" height="60" as="geometry" />
        </mxCell>
        <mxCell id="MX3AXQXJf54BNF3SE1I3-4" value="业务系统" style="swimlane;startSize=20;" vertex="1" parent="MX3AXQXJf54BNF3SE1I3-0">
          <mxGeometry x="490" y="20" width="280" height="660" as="geometry" />
        </mxCell>
        <mxCell id="MX3AXQXJf54BNF3SE1I3-10" value="账号" style="whiteSpace=wrap;html=1;rounded=0;" vertex="1" parent="MX3AXQXJf54BNF3SE1I3-4">
          <mxGeometry x="80" y="200" width="120" height="60" as="geometry" />
        </mxCell>
        <mxCell id="MX3AXQXJf54BNF3SE1I3-13" value="权限" style="whiteSpace=wrap;html=1;rounded=0;" vertex="1" parent="MX3AXQXJf54BNF3SE1I3-4">
          <mxGeometry x="80" y="340" width="120" height="60" as="geometry" />
        </mxCell>
        <mxCell id="MX3AXQXJf54BNF3SE1I3-18" value="数据权限" style="whiteSpace=wrap;html=1;rounded=0;" vertex="1" parent="MX3AXQXJf54BNF3SE1I3-4">
          <mxGeometry x="80" y="480" width="120" height="60" as="geometry" />
        </mxCell>
        <mxCell id="MX3AXQXJf54BNF3SE1I3-7" value="" style="edgeStyle=orthogonalEdgeStyle;rounded=0;orthogonalLoop=1;jettySize=auto;html=1;" edge="1" parent="MX3AXQXJf54BNF3SE1I3-0" source="MX3AXQXJf54BNF3SE1I3-5" target="MX3AXQXJf54BNF3SE1I3-6">
          <mxGeometry relative="1" as="geometry" />
        </mxCell>
        <mxCell id="MX3AXQXJf54BNF3SE1I3-11" value="" style="edgeStyle=orthogonalEdgeStyle;rounded=0;orthogonalLoop=1;jettySize=auto;html=1;exitX=1;exitY=0.5;exitDx=0;exitDy=0;" edge="1" parent="MX3AXQXJf54BNF3SE1I3-0" source="FvDaORWqxjSWWVm6NtL--0" target="MX3AXQXJf54BNF3SE1I3-10">
          <mxGeometry relative="1" as="geometry" />
        </mxCell>
        <mxCell id="MX3AXQXJf54BNF3SE1I3-14" value="" style="edgeStyle=orthogonalEdgeStyle;rounded=0;orthogonalLoop=1;jettySize=auto;html=1;" edge="1" parent="MX3AXQXJf54BNF3SE1I3-0" source="MX3AXQXJf54BNF3SE1I3-8" target="MX3AXQXJf54BNF3SE1I3-13">
          <mxGeometry relative="1" as="geometry" />
        </mxCell>
        <mxCell id="MX3AXQXJf54BNF3SE1I3-15" value="推送" style="edgeLabel;html=1;align=center;verticalAlign=middle;resizable=0;points=[];" vertex="1" connectable="0" parent="MX3AXQXJf54BNF3SE1I3-14">
          <mxGeometry x="-0.2864" y="1" relative="1" as="geometry">
            <mxPoint as="offset" />
          </mxGeometry>
        </mxCell>
        <mxCell id="MX3AXQXJf54BNF3SE1I3-19" value="" style="edgeStyle=orthogonalEdgeStyle;rounded=0;orthogonalLoop=1;jettySize=auto;html=1;" edge="1" parent="WIyWlLk6GJQsqaUBKTNV-1" source="MX3AXQXJf54BNF3SE1I3-16" target="MX3AXQXJf54BNF3SE1I3-18">
          <mxGeometry relative="1" as="geometry" />
        </mxCell>
        <mxCell id="MX3AXQXJf54BNF3SE1I3-16" value="配置数据权限" style="whiteSpace=wrap;html=1;rounded=0;" vertex="1" parent="WIyWlLk6GJQsqaUBKTNV-1">
          <mxGeometry x="314" y="530" width="120" height="60" as="geometry" />
        </mxCell>
        <mxCell id="MX3AXQXJf54BNF3SE1I3-17" value="" style="edgeStyle=orthogonalEdgeStyle;rounded=0;orthogonalLoop=1;jettySize=auto;html=1;" edge="1" parent="WIyWlLk6GJQsqaUBKTNV-1" source="MX3AXQXJf54BNF3SE1I3-8" target="MX3AXQXJf54BNF3SE1I3-16">
          <mxGeometry relative="1" as="geometry" />
        </mxCell>
      </root>
    </mxGraphModel>
  </diagram>
  <diagram id="lNg4HkQFBeymeus1TO-I" name="授权方案一">
    <mxGraphModel dx="1038" dy="611" grid="1" gridSize="10" guides="1" tooltips="1" connect="1" arrows="1" fold="1" page="1" pageScale="1" pageWidth="827" pageHeight="1169" math="0" shadow="0">
      <root>
        <mxCell id="8CQ-ia9fO0FRhSrcfYEi-0" />
        <mxCell id="8CQ-ia9fO0FRhSrcfYEi-1" parent="8CQ-ia9fO0FRhSrcfYEi-0" />
        <mxCell id="_9IWQN0s5ZDDrb8mUnR7-0" value="现有流程" style="swimlane;childLayout=stackLayout;resizeParent=1;resizeParentMax=0;startSize=20;" vertex="1" parent="8CQ-ia9fO0FRhSrcfYEi-1">
          <mxGeometry x="40" y="30" width="720" height="680" as="geometry" />
        </mxCell>
        <mxCell id="_9IWQN0s5ZDDrb8mUnR7-1" value="人资专员（人资系统）" style="swimlane;startSize=20;" vertex="1" parent="_9IWQN0s5ZDDrb8mUnR7-0">
          <mxGeometry y="20" width="190" height="660" as="geometry" />
        </mxCell>
        <mxCell id="_9IWQN0s5ZDDrb8mUnR7-2" value="人员入职/调岗" style="rounded=0;whiteSpace=wrap;html=1;" vertex="1" parent="_9IWQN0s5ZDDrb8mUnR7-1">
          <mxGeometry x="25" y="70" width="120" height="60" as="geometry" />
        </mxCell>
        <mxCell id="_9IWQN0s5ZDDrb8mUnR7-3" value="4A管理员&#xa;（4A系统地市、省份、总部）" style="swimlane;startSize=20;" vertex="1" parent="_9IWQN0s5ZDDrb8mUnR7-0">
          <mxGeometry x="190" y="20" width="260" height="660" as="geometry" />
        </mxCell>
        <mxCell id="_9IWQN0s5ZDDrb8mUnR7-5" value="建立/迁移账号" style="whiteSpace=wrap;html=1;rounded=0;" vertex="1" parent="_9IWQN0s5ZDDrb8mUnR7-3">
          <mxGeometry x="84" y="70" width="120" height="60" as="geometry" />
        </mxCell>
        <mxCell id="_9IWQN0s5ZDDrb8mUnR7-6" value="分配系统" style="whiteSpace=wrap;html=1;rounded=0;" vertex="1" parent="_9IWQN0s5ZDDrb8mUnR7-3">
          <mxGeometry x="84" y="210" width="120" height="60" as="geometry" />
        </mxCell>
        <mxCell id="_9IWQN0s5ZDDrb8mUnR7-7" value="" style="edgeStyle=orthogonalEdgeStyle;rounded=0;orthogonalLoop=1;jettySize=auto;html=1;" edge="1" parent="_9IWQN0s5ZDDrb8mUnR7-3" source="_9IWQN0s5ZDDrb8mUnR7-5" target="_9IWQN0s5ZDDrb8mUnR7-6">
          <mxGeometry relative="1" as="geometry" />
        </mxCell>
        <mxCell id="_9IWQN0s5ZDDrb8mUnR7-8" value="业务系统" style="swimlane;startSize=20;" vertex="1" parent="_9IWQN0s5ZDDrb8mUnR7-0">
          <mxGeometry x="450" y="20" width="270" height="660" as="geometry" />
        </mxCell>
        <mxCell id="_9IWQN0s5ZDDrb8mUnR7-10" value="账号" style="whiteSpace=wrap;html=1;rounded=0;" vertex="1" parent="_9IWQN0s5ZDDrb8mUnR7-8">
          <mxGeometry x="80" y="210" width="120" height="60" as="geometry" />
        </mxCell>
        <mxCell id="_9IWQN0s5ZDDrb8mUnR7-11" value="数据权限" style="whiteSpace=wrap;html=1;rounded=0;" vertex="1" parent="_9IWQN0s5ZDDrb8mUnR7-8">
          <mxGeometry x="80" y="350" width="120" height="60" as="geometry" />
        </mxCell>
        <mxCell id="_9IWQN0s5ZDDrb8mUnR7-12" value="" style="edgeStyle=orthogonalEdgeStyle;rounded=0;orthogonalLoop=1;jettySize=auto;html=1;" edge="1" parent="_9IWQN0s5ZDDrb8mUnR7-0" source="_9IWQN0s5ZDDrb8mUnR7-2" target="_9IWQN0s5ZDDrb8mUnR7-5">
          <mxGeometry relative="1" as="geometry" />
        </mxCell>
        <mxCell id="_9IWQN0s5ZDDrb8mUnR7-14" value="" style="edgeStyle=orthogonalEdgeStyle;rounded=0;orthogonalLoop=1;jettySize=auto;html=1;" edge="1" parent="_9IWQN0s5ZDDrb8mUnR7-0" source="_9IWQN0s5ZDDrb8mUnR7-6" target="_9IWQN0s5ZDDrb8mUnR7-10">
          <mxGeometry relative="1" as="geometry" />
        </mxCell>
        <mxCell id="_9IWQN0s5ZDDrb8mUnR7-15" value="推送" style="edgeLabel;html=1;align=center;verticalAlign=middle;resizable=0;points=[];" vertex="1" connectable="0" parent="_9IWQN0s5ZDDrb8mUnR7-14">
          <mxGeometry x="-0.2864" y="1" relative="1" as="geometry">
            <mxPoint as="offset" />
          </mxGeometry>
        </mxCell>
        <mxCell id="_9IWQN0s5ZDDrb8mUnR7-16" value="" style="edgeStyle=orthogonalEdgeStyle;rounded=0;orthogonalLoop=1;jettySize=auto;html=1;" edge="1" parent="8CQ-ia9fO0FRhSrcfYEi-1" source="_9IWQN0s5ZDDrb8mUnR7-17" target="_9IWQN0s5ZDDrb8mUnR7-11">
          <mxGeometry relative="1" as="geometry" />
        </mxCell>
        <mxCell id="_9IWQN0s5ZDDrb8mUnR7-17" value="配置数据权限" style="whiteSpace=wrap;html=1;rounded=0;" vertex="1" parent="8CQ-ia9fO0FRhSrcfYEi-1">
          <mxGeometry x="314" y="400" width="120" height="60" as="geometry" />
        </mxCell>
        <mxCell id="_9IWQN0s5ZDDrb8mUnR7-18" value="" style="edgeStyle=orthogonalEdgeStyle;rounded=0;orthogonalLoop=1;jettySize=auto;html=1;" edge="1" parent="8CQ-ia9fO0FRhSrcfYEi-1" source="_9IWQN0s5ZDDrb8mUnR7-6" target="_9IWQN0s5ZDDrb8mUnR7-17">
          <mxGeometry relative="1" as="geometry" />
        </mxCell>
      </root>
    </mxGraphModel>
  </diagram>
  <diagram id="uurqNcsF23_Rn0OkwrQy" name="授权方案二">
    <mxGraphModel dx="1038" dy="611" grid="1" gridSize="10" guides="1" tooltips="1" connect="1" arrows="1" fold="1" page="1" pageScale="1" pageWidth="827" pageHeight="1169" math="0" shadow="0">
      <root>
        <mxCell id="VEONL2WNQXDeuScce6_d-0" />
        <mxCell id="VEONL2WNQXDeuScce6_d-1" parent="VEONL2WNQXDeuScce6_d-0" />
      </root>
    </mxGraphModel>
  </diagram>
</mxfile>
